<svg width="103" height="20" viewBox="0 0 103 20" fill="none" xmlns="http://www.w3.org/2000/svg">
<path d="M0 15H3.33333V18.3333H0V15Z" fill="#00FFFF"/>
<path d="M3.33333 11.6666H6.66667V15H3.33333V11.6666Z" fill="#00FFFF"/>
<path d="M6.66667 8.33329H10V11.6666L6.66667 11.6666V8.33329Z" fill="#00FFFF"/>
<path d="M3.33333 4.99996H6.66667V8.33329H3.33333V4.99996Z" fill="#00FFFF"/>
<path d="M0 1.66663H3.33333V4.99996H0V1.66663Z" fill="#00FFFF"/>
<path d="M10 15H13.3333V18.3333H10V15Z" fill="#00FFFF"/>
<path d="M13.3333 11.6666H16.6667V15L13.3333 15L13.3333 11.6666Z" fill="#00FFFF"/>
<path d="M16.6667 8.33329H20V11.6666L16.6667 11.6666L16.6667 8.33329Z" fill="#00FFFF"/>
<path d="M13.3333 4.99996H16.6667L16.6667 8.33329L13.3333 8.33329V4.99996Z" fill="#00FFFF"/>
<path d="M10 1.66663H13.3333L13.3333 4.99996L10 4.99996V1.66663Z" fill="#00FFFF"/>
<path d="M33.3339 5.98C34.2673 5.98 35.0673 6.20667 35.7339 6.66C36.4139 7.11333 36.9339 7.76 37.2939 8.6C37.6539 9.44 37.8339 10.4467 37.8339 11.62C37.8339 13.4467 37.4206 14.8533 36.5939 15.84C35.7806 16.8133 34.6939 17.3 33.3339 17.3C32.1339 17.3 31.1873 16.8133 30.4939 15.84C29.8006 14.8667 29.4539 13.46 29.4539 11.62C29.4539 10.46 29.6139 9.46 29.9339 8.62C30.2539 7.76667 30.7006 7.11333 31.2739 6.66C31.8606 6.20667 32.5473 5.98 33.3339 5.98ZM32.8739 8.1C32.1006 8.1 31.5139 8.4 31.1139 9C30.7139 9.6 30.5139 10.4733 30.5139 11.62C30.5139 12.7667 30.7139 13.6467 31.1139 14.26C31.5273 14.8733 32.1139 15.18 32.8739 15.18C33.6339 15.18 34.2139 14.8733 34.6139 14.26C35.0139 13.6467 35.2139 12.7667 35.2139 11.62C35.2139 10.4867 35.0073 9.62 34.5939 9.02C34.1939 8.40667 33.6206 8.1 32.8739 8.1ZM30.5139 17H27.9539V2.6H30.5139V17ZM39.1922 17V2.6H41.7522V17H39.1922ZM52.8146 6.28V17H50.2546V6.28H52.8146ZM50.2546 12.5H51.0746C51.0212 13.58 50.8146 14.48 50.4546 15.2C50.1079 15.9067 49.6479 16.4333 49.0746 16.78C48.5146 17.1267 47.8679 17.3 47.1346 17.3C46.4412 17.3 45.8212 17.16 45.2746 16.88C44.7412 16.5867 44.3279 16.1533 44.0346 15.58C43.7412 15.0067 43.5946 14.2933 43.5946 13.44V6.28H46.1546V12.92C46.1546 13.4 46.2212 13.8133 46.3546 14.16C46.4879 14.4933 46.6879 14.7467 46.9546 14.92C47.2346 15.0933 47.5879 15.18 48.0146 15.18C48.3612 15.18 48.6679 15.1133 48.9346 14.98C49.2146 14.8333 49.4479 14.6333 49.6346 14.38C49.8346 14.1267 49.9879 13.84 50.0946 13.52C50.2012 13.2 50.2546 12.86 50.2546 12.5ZM63.2566 10.56L61.7766 11.6C61.7766 10.4667 61.5632 9.6 61.1366 9C60.7099 8.38667 60.0966 8.08 59.2966 8.08C58.4832 8.08 57.8632 8.38667 57.4366 9C57.0099 9.61333 56.7966 10.5 56.7966 11.66C56.7966 12.7933 57.0166 13.6667 57.4566 14.28C57.9099 14.8933 58.5566 15.2 59.3966 15.2C59.9966 15.2 60.4966 15.06 60.8966 14.78C61.3099 14.5 61.5966 14.0733 61.7566 13.5H64.4566C64.1632 14.74 63.5632 15.6867 62.6566 16.34C61.7632 16.98 60.6766 17.3 59.3966 17.3C58.3299 17.3 57.4032 17.0733 56.6166 16.62C55.8299 16.1667 55.2232 15.52 54.7966 14.68C54.3832 13.8267 54.1766 12.82 54.1766 11.66C54.1766 10.4467 54.3832 9.42 54.7966 8.58C55.2232 7.72667 55.8232 7.08 56.5966 6.64C57.3699 6.2 58.2699 5.98 59.2966 5.98C60.3366 5.98 61.2366 6.20667 61.9966 6.66C62.7566 7.11333 63.3432 7.75333 63.7566 8.58C64.1699 9.40667 64.3766 10.4 64.3766 11.56V12.16H55.2366V10.56H63.2566ZM67.9377 9.16C67.9377 9.52 68.0577 9.79333 68.2977 9.98C68.5377 10.1667 68.8577 10.3133 69.2577 10.42C69.671 10.5133 70.1177 10.6 70.5977 10.68C71.0777 10.7467 71.5577 10.84 72.0377 10.96C72.5177 11.08 72.9577 11.2467 73.3577 11.46C73.7577 11.6733 74.0777 11.9667 74.3177 12.34C74.571 12.7133 74.6977 13.2133 74.6977 13.84C74.6977 14.52 74.4977 15.12 74.0977 15.64C73.711 16.16 73.1777 16.5667 72.4977 16.86C71.8177 17.1533 71.0243 17.3 70.1177 17.3C68.7977 17.3 67.691 16.9933 66.7977 16.38C65.9177 15.7533 65.3843 14.7933 65.1977 13.5H67.7577C67.851 14.0733 68.111 14.52 68.5377 14.84C68.9777 15.16 69.531 15.32 70.1977 15.32C70.8377 15.32 71.3177 15.2 71.6377 14.96C71.9577 14.7067 72.1177 14.3867 72.1177 14C72.1177 13.6533 71.9977 13.3867 71.7577 13.2C71.5177 13.0133 71.1977 12.8733 70.7977 12.78C70.411 12.6867 69.9777 12.6 69.4977 12.52C69.031 12.44 68.5643 12.3467 68.0977 12.24C67.631 12.12 67.1977 11.9533 66.7977 11.74C66.411 11.5133 66.0977 11.2133 65.8577 10.84C65.6177 10.4533 65.4977 9.94667 65.4977 9.32C65.4977 8.73333 65.651 8.19333 65.9577 7.7C66.2643 7.19333 66.7243 6.78 67.3377 6.46C67.951 6.14 68.7243 5.98 69.6577 5.98C70.4843 5.98 71.2243 6.11333 71.8777 6.38C72.531 6.64667 73.071 7.06 73.4977 7.62C73.9377 8.18 74.2043 8.90667 74.2977 9.8H71.7377C71.631 9.14667 71.391 8.68 71.0177 8.4C70.6577 8.12 70.171 7.98 69.5577 7.98C69.051 7.98 68.651 8.09333 68.3577 8.32C68.0777 8.54667 67.9377 8.82667 67.9377 9.16ZM75.9422 17V2.6H78.5022V17H75.9422ZM78.5022 10.78H77.6822C77.7489 9.7 77.9555 8.80667 78.3022 8.1C78.6489 7.39333 79.1089 6.86667 79.6822 6.52C80.2689 6.16 80.9355 5.98 81.6822 5.98C82.4022 5.98 83.0289 6.12667 83.5622 6.42C84.1089 6.7 84.5289 7.12667 84.8222 7.7C85.1289 8.27333 85.2822 8.99333 85.2822 9.86V17H82.7222V10.38C82.7222 9.88667 82.6489 9.47333 82.5022 9.14C82.3689 8.79333 82.1622 8.53333 81.8822 8.36C81.6022 8.18667 81.2422 8.1 80.8022 8.1C80.4555 8.1 80.1355 8.17333 79.8422 8.32C79.5622 8.45333 79.3222 8.64667 79.1222 8.9C78.9222 9.14 78.7689 9.42667 78.6622 9.76C78.5555 10.08 78.5022 10.42 78.5022 10.78ZM87.1414 17V6.28H89.7014V17H87.1414ZM87.1414 5.08V2.6H89.7014V5.08H87.1414ZM91.8438 5.94C91.8438 4.72667 92.1104 3.82 92.6438 3.22C93.1771 2.60667 93.9504 2.3 94.9638 2.3C95.2971 2.3 95.5771 2.32667 95.8038 2.38C96.0438 2.43333 96.2304 2.49333 96.3638 2.56V4.22H96.1638C95.4438 4.22 94.9704 4.36667 94.7438 4.66C94.5171 4.94 94.4038 5.36667 94.4038 5.94V17H91.8438V5.94ZM90.4638 8.26V6.28H96.3638V8.26H90.4638ZM97.4189 13.66V3.82H99.9789V13.44C99.9789 14 100.092 14.4267 100.319 14.72C100.546 15.0133 101.012 15.16 101.719 15.16H102.199V17.04C102.066 17.12 101.859 17.18 101.579 17.22C101.299 17.2733 100.986 17.3 100.639 17.3C99.5456 17.3 98.7323 16.9933 98.1989 16.38C97.6789 15.7667 97.4189 14.86 97.4189 13.66ZM96.0389 8.26V6.28H102.239V8.26H96.0389Z" fill="#EFF1F6"/>
</svg>
