<svg width="750" height="850" viewBox="0 0 750 850" fill="none" xmlns="http://www.w3.org/2000/svg">
<path d="M675.914 783.399C675.078 783.399 674.341 782.799 674.192 781.95C674.026 780.998 674.663 780.09 675.615 779.924C681.885 778.832 686.831 773.886 687.923 767.618C688.089 766.664 689.008 766.027 689.946 766.195C690.898 766.361 691.538 767.266 691.37 768.22C690.026 775.941 683.936 782.029 676.215 783.375C676.112 783.394 676.012 783.401 675.911 783.401L675.914 783.399Z" fill="#00E66B"/>
<path opacity="0.4" d="M670.086 783.398C669.985 783.398 669.885 783.391 669.782 783.373C662.061 782.029 655.974 775.936 654.627 768.218C654.462 767.266 655.099 766.358 656.051 766.192C657.003 766.024 657.908 766.664 658.074 767.616C659.166 773.885 664.112 778.832 670.38 779.924C671.332 780.09 671.971 780.995 671.803 781.947C671.656 782.799 670.916 783.398 670.081 783.398H670.086Z" fill="#00E66B"/>
<path opacity="0.4" d="M656.353 763.834C656.253 763.834 656.153 763.827 656.052 763.808C655.1 763.642 654.461 762.737 654.629 761.782C655.973 754.061 662.06 747.974 669.781 746.627C670.747 746.466 671.639 747.099 671.807 748.051C671.973 749.003 671.335 749.911 670.383 750.076C664.114 751.168 659.167 756.115 658.075 762.382C657.928 763.234 657.189 763.834 656.353 763.834Z" fill="#00E66B"/>
<path d="M689.645 763.833C688.81 763.833 688.072 763.234 687.923 762.384C686.831 756.115 681.884 751.168 675.617 750.076C674.665 749.91 674.026 749.005 674.194 748.053C674.359 747.101 675.262 746.459 676.219 746.63C683.94 747.974 690.028 754.064 691.374 761.785C691.54 762.737 690.903 763.644 689.951 763.81C689.848 763.829 689.748 763.836 689.647 763.836L689.645 763.833Z" fill="#00E66B"/>
<path d="M673 759.167C669.782 759.167 667.167 761.782 667.167 765C667.167 768.218 669.782 770.833 673 770.833C676.218 770.833 678.833 768.218 678.833 765C678.833 761.782 676.218 759.167 673 759.167Z" fill="#00E66B"/>
</svg>
