<svg width="750" height="850" viewBox="0 0 750 850" fill="none" xmlns="http://www.w3.org/2000/svg">
<path d="M675.912 783.397C675.077 783.397 674.34 782.797 674.191 781.948C674.025 780.996 674.662 780.088 675.614 779.923C681.883 778.831 686.83 773.884 687.922 767.617C688.088 766.662 689.007 766.026 689.945 766.194C690.897 766.359 691.536 767.264 691.368 768.219C690.024 775.94 683.934 782.027 676.213 783.374C676.111 783.392 676.01 783.399 675.91 783.399L675.912 783.397Z" fill="#FF285A"/>
<path d="M670.084 783.398C669.984 783.398 669.884 783.391 669.781 783.372C662.06 782.028 655.972 775.936 654.626 768.217C654.46 767.265 655.097 766.357 656.049 766.192C657.001 766.024 657.907 766.663 658.072 767.615C659.164 773.885 664.111 778.831 670.378 779.923C671.33 780.089 671.97 780.994 671.802 781.946C671.655 782.798 670.915 783.398 670.08 783.398H670.084Z" fill="#FF285A"/>
<path d="M656.353 763.833C656.252 763.833 656.152 763.826 656.052 763.807C655.1 763.642 654.46 762.736 654.628 761.782C655.972 754.061 662.06 747.973 669.781 746.627C670.747 746.466 671.638 747.098 671.806 748.05C671.972 749.002 671.335 749.91 670.383 750.076C664.113 751.168 659.167 756.114 658.075 762.382C657.928 763.233 657.188 763.833 656.353 763.833Z" fill="#FF285A"/>
<path d="M689.644 763.833C688.808 763.833 688.071 763.233 687.922 762.384C686.83 756.114 681.883 751.167 675.616 750.075C674.664 749.91 674.024 749.004 674.192 748.052C674.358 747.1 675.261 746.459 676.218 746.629C683.939 747.973 690.026 754.063 691.373 761.784C691.538 762.736 690.901 763.644 689.949 763.809C689.847 763.828 689.746 763.835 689.646 763.835L689.644 763.833Z" fill="#FF285A"/>
<path d="M672.999 759.166C669.782 759.166 667.166 761.781 667.166 764.999C667.166 768.217 669.782 770.832 672.999 770.832C676.217 770.832 678.833 768.217 678.833 764.999C678.833 761.781 676.217 759.166 672.999 759.166Z" fill="#FF285A"/>
</svg>
