<svg width="750" height="850" viewBox="0 0 750 850" fill="none" xmlns="http://www.w3.org/2000/svg">
<path d="M675.912 783.399C675.077 783.399 674.34 782.799 674.191 781.95C674.025 780.998 674.662 780.09 675.614 779.924C681.883 778.832 686.83 773.886 687.922 767.618C688.088 766.664 689.007 766.027 689.945 766.195C690.897 766.361 691.536 767.266 691.368 768.22C690.024 775.941 683.934 782.029 676.213 783.375C676.111 783.394 676.01 783.401 675.91 783.401L675.912 783.399Z" fill="#E6D700"/>
<path d="M670.084 783.398C669.984 783.398 669.884 783.391 669.781 783.373C662.06 782.029 655.972 775.936 654.626 768.218C654.46 767.266 655.097 766.358 656.049 766.192C657.001 766.024 657.907 766.664 658.072 767.616C659.164 773.885 664.111 778.832 670.378 779.924C671.33 780.09 671.97 780.995 671.802 781.947C671.655 782.799 670.915 783.398 670.08 783.398H670.084Z" fill="#E6D700"/>
<path opacity="0.4" d="M656.353 763.834C656.252 763.834 656.152 763.827 656.052 763.808C655.1 763.642 654.46 762.737 654.628 761.783C655.972 754.062 662.06 747.974 669.781 746.628C670.747 746.467 671.638 747.099 671.806 748.051C671.972 749.003 671.335 749.911 670.383 750.076C664.113 751.168 659.167 756.115 658.075 762.382C657.928 763.234 657.188 763.834 656.353 763.834Z" fill="#E6D700"/>
<path d="M689.644 763.833C688.808 763.833 688.071 763.234 687.922 762.384C686.83 756.115 681.883 751.168 675.616 750.076C674.664 749.91 674.024 749.005 674.192 748.053C674.358 747.101 675.261 746.459 676.218 746.63C683.939 747.974 690.026 754.064 691.373 761.785C691.538 762.737 690.901 763.644 689.949 763.81C689.847 763.829 689.746 763.836 689.646 763.836L689.644 763.833Z" fill="#E6D700"/>
<path d="M672.999 759.167C669.782 759.167 667.166 761.782 667.166 765C667.166 768.218 669.782 770.833 672.999 770.833C676.217 770.833 678.833 768.218 678.833 765C678.833 761.782 676.217 759.167 672.999 759.167Z" fill="#E6D700"/>
</svg>
