<svg width="750" height="850" viewBox="0 0 750 850" fill="none" xmlns="http://www.w3.org/2000/svg">
<path opacity="0.4" d="M675.915 783.398C675.08 783.398 674.342 782.798 674.193 781.949C674.027 780.997 674.664 780.089 675.616 779.923C681.886 778.831 686.833 773.885 687.925 767.617C688.09 766.663 689.01 766.026 689.948 766.194C690.9 766.36 691.539 767.265 691.371 768.219C690.027 775.94 683.937 782.028 676.216 783.374C676.113 783.393 676.013 783.4 675.913 783.4L675.915 783.398Z" fill="#00C7E6"/>
<path opacity="0.4" d="M670.087 783.398C669.987 783.398 669.886 783.391 669.784 783.372C662.063 782.028 655.975 775.936 654.629 768.217C654.463 767.265 655.1 766.357 656.052 766.192C657.004 766.024 657.909 766.663 658.075 767.615C659.167 773.885 664.114 778.831 670.381 779.923C671.333 780.089 671.972 780.994 671.804 781.946C671.657 782.798 670.918 783.398 670.082 783.398H670.087Z" fill="#00C7E6"/>
<path opacity="0.4" d="M656.354 763.833C656.254 763.833 656.154 763.826 656.053 763.807C655.101 763.642 654.462 762.736 654.63 761.782C655.974 754.061 662.062 747.973 669.783 746.627C670.749 746.466 671.64 747.098 671.808 748.05C671.974 749.002 671.337 749.91 670.385 750.076C664.115 751.168 659.168 756.114 658.076 762.382C657.929 763.233 657.19 763.833 656.354 763.833Z" fill="#00C7E6"/>
<path d="M689.646 763.833C688.811 763.833 688.073 763.233 687.924 762.384C686.832 756.114 681.885 751.167 675.618 750.075C674.666 749.91 674.027 749.004 674.195 748.052C674.36 747.1 675.263 746.459 676.22 746.629C683.941 747.973 690.029 754.063 691.375 761.784C691.541 762.736 690.904 763.644 689.952 763.809C689.849 763.828 689.749 763.835 689.648 763.835L689.646 763.833Z" fill="#00C7E6"/>
<path d="M673 759.166C669.782 759.166 667.167 761.781 667.167 764.999C667.167 768.217 669.782 770.832 673 770.832C676.218 770.832 678.833 768.217 678.833 764.999C678.833 761.781 676.218 759.166 673 759.166Z" fill="#00C7E6"/>
</svg>
