<svg width="750" height="850" viewBox="0 0 750 850" fill="none" xmlns="http://www.w3.org/2000/svg">
<path opacity="0.2" d="M85.0664 759.587C85.496 757.479 84.8614 755.239 83.3106 753.688C81.7598 752.135 79.5176 751.501 77.4102 751.931C76.2246 750.137 74.1914 749.002 71.998 749.002C69.8046 749.002 67.7714 750.137 66.5858 751.931C64.4804 751.5 62.2382 752.135 60.6854 753.688C59.1346 755.239 58.4998 757.479 58.9296 759.586C57.1346 760.773 56 762.806 56 765C56 767.194 57.1348 769.227 58.9296 770.413C58.5 772.522 59.1346 774.762 60.6854 776.313C62.2382 777.864 64.4804 778.498 66.5858 778.069C67.7714 779.863 69.8046 780.998 71.998 780.998C74.1914 780.998 76.2246 779.862 77.4102 778.069C79.5254 778.497 81.7598 777.864 83.3106 776.313C84.8634 774.761 85.4982 772.521 85.0664 770.413C86.8614 769.228 87.996 767.195 87.996 765C87.996 762.806 86.8612 760.774 85.0664 759.587Z" fill="#00FFFF"/>
<path d="M69.996 772C69.5722 772 69.166 771.821 68.8808 771.504L64.3808 766.504C63.8262 765.888 63.8767 764.94 64.4921 764.385C65.1073 763.831 66.0527 763.879 66.6113 764.496L69.9082 768.16L77.3085 758.583C77.8163 757.928 78.7577 757.806 79.4139 758.314C80.0681 758.819 80.1893 759.762 79.6835 760.417L71.1835 771.417C70.9101 771.77 70.496 771.983 70.0528 771.999C70.0332 772 70.0154 772 69.996 772Z" fill="#00FFFF"/>
<path d="M124.768 771.637C124.768 772.405 124.672 773.137 124.48 773.833C124.288 774.505 124.024 775.117 123.688 775.669L124.912 778.333H121.168C121 778.333 120.82 778.285 120.628 778.189C119.692 778.525 118.72 778.693 117.712 778.693H112.996C111.94 778.693 110.98 778.525 110.116 778.189C109.252 777.853 108.508 777.373 107.884 776.749C107.26 776.125 106.78 775.381 106.444 774.517C106.108 773.653 105.94 772.693 105.94 771.637V758.641C105.94 757.585 106.108 756.625 106.444 755.761C106.78 754.897 107.26 754.153 107.884 753.529C108.508 752.905 109.252 752.425 110.116 752.089C110.98 751.753 111.94 751.585 112.996 751.585H117.712C118.768 751.585 119.728 751.753 120.592 752.089C121.456 752.425 122.2 752.905 122.824 753.529C123.448 754.153 123.928 754.897 124.264 755.761C124.6 756.625 124.768 757.585 124.768 758.641V771.637ZM120.664 769.045V758.533C120.664 757.621 120.388 756.901 119.836 756.373C119.308 755.821 118.588 755.545 117.676 755.545H113.032C112.144 755.545 111.424 755.821 110.872 756.373C110.344 756.901 110.08 757.621 110.08 758.533V771.781C110.08 772.669 110.344 773.389 110.872 773.941C111.424 774.469 112.144 774.733 113.032 774.733H117.676C117.868 774.733 118.048 774.721 118.216 774.697C118.408 774.673 118.588 774.637 118.756 774.589L114.076 764.365H117.784C118.048 764.365 118.264 764.437 118.432 764.581C118.624 764.725 118.768 764.905 118.864 765.121L120.664 769.045ZM132.211 751.981C132.427 751.981 132.607 752.053 132.751 752.197C132.895 752.341 132.967 752.521 132.967 752.737V771.781C132.967 772.693 133.231 773.425 133.759 773.977C134.311 774.505 135.031 774.769 135.919 774.769H140.563C141.475 774.769 142.195 774.505 142.723 773.977C143.275 773.425 143.551 772.693 143.551 771.781V752.737C143.551 752.521 143.611 752.341 143.731 752.197C143.875 752.053 144.067 751.981 144.307 751.981H146.899C147.139 751.981 147.319 752.053 147.439 752.197C147.583 752.341 147.655 752.521 147.655 752.737V771.673C147.655 772.729 147.487 773.689 147.151 774.553C146.815 775.417 146.335 776.161 145.711 776.785C145.087 777.409 144.343 777.889 143.479 778.225C142.615 778.561 141.655 778.729 140.599 778.729H135.883C134.827 778.729 133.867 778.561 133.003 778.225C132.139 777.889 131.395 777.409 130.771 776.785C130.147 776.161 129.667 775.417 129.331 774.553C128.995 773.689 128.827 772.729 128.827 771.673V752.737C128.827 752.521 128.899 752.341 129.043 752.197C129.187 752.053 129.379 751.981 129.619 751.981H132.211ZM157.765 752.809C157.861 752.617 158.005 752.461 158.197 752.341C158.389 752.197 158.605 752.125 158.845 752.125H163.129C163.633 752.125 164.005 752.353 164.245 752.809L170.113 764.437C170.209 764.629 170.281 764.857 170.329 765.121C170.377 765.385 170.401 765.625 170.401 765.841V777.577C170.401 778.081 170.149 778.333 169.645 778.333H167.053C166.549 778.333 166.297 778.081 166.297 777.577V773.617H155.713V777.577C155.713 777.817 155.641 778.009 155.497 778.153C155.353 778.273 155.173 778.333 154.957 778.333H152.365C151.837 778.333 151.573 778.081 151.573 777.577V765.841C151.573 765.625 151.597 765.385 151.645 765.121C151.717 764.857 151.801 764.629 151.897 764.437L157.765 752.809ZM166.297 769.693V765.373L161.473 756.085H160.537L155.713 765.373V769.693H166.297ZM174.607 752.737C174.607 752.521 174.679 752.341 174.823 752.197C174.967 752.053 175.147 751.981 175.363 751.981H177.991C178.207 751.981 178.387 752.053 178.531 752.197C178.675 752.341 178.747 752.521 178.747 752.737V774.373H192.751C192.967 774.373 193.147 774.445 193.291 774.589C193.435 774.709 193.507 774.889 193.507 775.129V777.577C193.507 777.817 193.435 778.009 193.291 778.153C193.147 778.273 192.967 778.333 192.751 778.333H175.363C175.147 778.333 174.967 778.273 174.823 778.153C174.679 778.009 174.607 777.817 174.607 777.577V752.737ZM201.847 774.373V756.085H195.187C194.683 756.085 194.431 755.833 194.431 755.329V752.881C194.431 752.665 194.491 752.485 194.611 752.341C194.755 752.197 194.947 752.125 195.187 752.125H212.539C212.779 752.125 212.971 752.197 213.115 752.341C213.259 752.485 213.331 752.665 213.331 752.881V755.329C213.331 755.833 213.067 756.085 212.539 756.085H205.951V774.373H212.539C213.067 774.373 213.331 774.625 213.331 775.129V777.577C213.331 778.081 213.067 778.333 212.539 778.333H195.187C194.683 778.333 194.431 778.081 194.431 777.577V775.129C194.431 774.625 194.683 774.373 195.187 774.373H201.847ZM234.235 752.125C234.451 752.125 234.631 752.197 234.775 752.341C234.919 752.485 234.991 752.665 234.991 752.881V755.329C234.991 755.569 234.919 755.761 234.775 755.905C234.631 756.025 234.451 756.085 234.235 756.085H220.231V763.285H233.515C233.731 763.285 233.911 763.357 234.055 763.501C234.199 763.621 234.271 763.801 234.271 764.041V766.417C234.271 766.657 234.199 766.849 234.055 766.993C233.911 767.113 233.731 767.173 233.515 767.173H220.231V777.721C220.231 777.937 220.159 778.117 220.015 778.261C219.871 778.405 219.691 778.477 219.475 778.477H216.847C216.631 778.477 216.451 778.405 216.307 778.261C216.163 778.117 216.091 777.937 216.091 777.721V752.881C216.091 752.665 216.163 752.485 216.307 752.341C216.451 752.197 216.631 752.125 216.847 752.125H234.235ZM243.127 774.373V756.085H236.467C235.963 756.085 235.711 755.833 235.711 755.329V752.881C235.711 752.665 235.771 752.485 235.891 752.341C236.035 752.197 236.227 752.125 236.467 752.125H253.819C254.059 752.125 254.251 752.197 254.395 752.341C254.539 752.485 254.611 752.665 254.611 752.881V755.329C254.611 755.833 254.347 756.085 253.819 756.085H247.231V774.373H253.819C254.347 774.373 254.611 774.625 254.611 775.129V777.577C254.611 778.081 254.347 778.333 253.819 778.333H236.467C235.963 778.333 235.711 778.081 235.711 777.577V775.129C235.711 774.625 235.963 774.373 236.467 774.373H243.127ZM275.298 752.125C275.514 752.125 275.694 752.197 275.838 752.341C275.982 752.485 276.054 752.665 276.054 752.881V755.329C276.054 755.569 275.982 755.761 275.838 755.905C275.694 756.025 275.514 756.085 275.298 756.085H261.294V763.285H274.578C274.794 763.285 274.974 763.357 275.118 763.501C275.262 763.621 275.334 763.801 275.334 764.041V766.417C275.334 766.657 275.262 766.849 275.118 766.993C274.974 767.113 274.794 767.173 274.578 767.173H261.294V774.373H275.298C275.514 774.373 275.694 774.445 275.838 774.589C275.982 774.709 276.054 774.889 276.054 775.129V777.577C276.054 777.817 275.982 778.009 275.838 778.153C275.694 778.273 275.514 778.333 275.298 778.333H257.91C257.694 778.333 257.514 778.273 257.37 778.153C257.226 778.009 257.154 777.817 257.154 777.577V752.881C257.154 752.665 257.226 752.485 257.37 752.341C257.514 752.197 257.694 752.125 257.91 752.125H275.298ZM292.305 752.125C293.361 752.125 294.321 752.293 295.185 752.629C296.049 752.965 296.793 753.445 297.417 754.069C298.041 754.693 298.521 755.437 298.857 756.301C299.193 757.165 299.361 758.125 299.361 759.181V771.277C299.361 772.333 299.193 773.293 298.857 774.157C298.521 775.021 298.041 775.765 297.417 776.389C296.793 777.013 296.049 777.493 295.185 777.829C294.321 778.165 293.361 778.333 292.305 778.333H281.289C281.073 778.333 280.893 778.273 280.749 778.153C280.605 778.009 280.533 777.817 280.533 777.577V752.881C280.533 752.665 280.605 752.485 280.749 752.341C280.893 752.197 281.073 752.125 281.289 752.125H292.305ZM292.269 774.373C293.181 774.373 293.901 774.109 294.429 773.581C294.957 773.029 295.221 772.309 295.221 771.421V759.073C295.221 758.161 294.957 757.441 294.429 756.913C293.901 756.361 293.181 756.085 292.269 756.085H284.673V774.373H292.269Z" fill="#00FFFF"/>
</svg>
